<svg xmlns="http://www.w3.org/2000/svg" viewBox="0 0 24 24" fill="none">
  <path d="M7.8 4.5C7.4 4.1 6.8 3.95 6.25 4.12L4.62 4.66C3.92 4.89 3.46 5.56 3.52 6.29C4.01 12.22 8.78 16.99 14.71 17.48C15.44 17.54 16.11 17.08 16.34 16.38L16.88 14.75C17.05 14.2 16.9 13.6 16.5 13.2L14.34 11.04C13.97 10.67 13.42 10.54 12.92 10.71L11.64 11.13C10.08 10.35 8.65 8.92 7.87 7.36L8.29 6.08C8.46 5.58 8.33 5.03 7.96 4.66L7.8 4.5Z" stroke="currentColor" stroke-width="1.6" stroke-linecap="round" stroke-linejoin="round"></path>
</svg>